<svg width="40" height="194" viewBox="0 0 40 194" fill="none" xmlns="http://www.w3.org/2000/svg">
<path fill-rule="evenodd" clip-rule="evenodd" d="M0 67.1117C0 77.055 7.22167 85.3233 16.6667 87V72.555H11.6667V67H16.6667V62.555C16.6667 57.555 19.8883 54.7783 24.445 54.7783C25.8883 54.7783 27.445 55 28.8883 55.2217V60.3333H26.3333C23.8883 60.3333 23.3333 61.555 23.3333 63.1117V67H28.6667L27.7783 72.555H23.3333V87C32.7783 85.3233 40 77.0567 40 67.1117C40 56.05 31 47 20 47C9 47 0 56.05 0 67.1117Z" fill="white"/>
<g clip-path="url(#clip0_830_5005)">
<path d="M20.0008 107.801C9.39678 107.801 0.800781 116.397 0.800781 127.001C0.800781 137.605 9.39678 146.201 20.0008 146.201C30.6048 146.201 39.2008 137.605 39.2008 127.001C39.2008 116.397 30.6048 107.801 20.0008 107.801ZM15.3008 134.959H11.4128V122.447H15.3008V134.959ZM13.3328 120.911C12.1048 120.911 11.3108 120.041 11.3108 118.965C11.3108 117.867 12.1288 117.023 13.3828 117.023C14.6368 117.023 15.4048 117.867 15.4288 118.965C15.4288 120.041 14.6368 120.911 13.3328 120.911ZM29.5008 134.959H25.6128V128.025C25.6128 126.411 25.0488 125.315 23.6428 125.315C22.5688 125.315 21.9308 126.057 21.6488 126.771C21.5448 127.025 21.5188 127.385 21.5188 127.743V134.957H17.6288V126.437C17.6288 124.875 17.5788 123.569 17.5268 122.445H20.9048L21.0828 124.183H21.1608C21.6728 123.367 22.9268 122.163 25.0248 122.163C27.5828 122.163 29.5008 123.877 29.5008 127.561V134.959V134.959Z" fill="white"/>
</g>
<defs>
<clipPath id="clip0_830_5005">
<rect width="40" height="40" fill="white" transform="translate(0 107)"/>
</clipPath>
</defs>
</svg>
