<svg width="40" height="194" viewBox="0 0 40 194" fill="none" xmlns="http://www.w3.org/2000/svg">
<path fill-rule="evenodd" clip-rule="evenodd" d="M0 67.1117C0 77.055 7.22167 85.3233 16.6667 87V72.555H11.6667V67H16.6667V62.555C16.6667 57.555 19.8883 54.7783 24.445 54.7783C25.8883 54.7783 27.445 55 28.8883 55.2217V60.3333H26.3333C23.8883 60.3333 23.3333 61.555 23.3333 63.1117V67H28.6667L27.7783 72.555H23.3333V87C32.7783 85.3233 40 77.0567 40 67.1117C40 56.05 31 47 20 47C9 47 0 56.05 0 67.1117Z" fill="white"/>
<g clip-path="url(#clip0_113_408)">
<path d="M19.9998 107.8C9.39581 107.8 0.799805 116.396 0.799805 127C0.799805 137.604 9.39581 146.2 19.9998 146.2C30.6038 146.2 39.1998 137.604 39.1998 127C39.1998 116.396 30.6038 107.8 19.9998 107.8ZM15.2998 134.958H11.4118V122.446H15.2998V134.958ZM13.3318 120.91C12.1038 120.91 11.3098 120.04 11.3098 118.964C11.3098 117.866 12.1278 117.022 13.3818 117.022C14.6358 117.022 15.4038 117.866 15.4278 118.964C15.4278 120.04 14.6358 120.91 13.3318 120.91ZM29.4998 134.958H25.6118V128.024C25.6118 126.41 25.0478 125.314 23.6418 125.314C22.5678 125.314 21.9298 126.056 21.6478 126.77C21.5438 127.024 21.5178 127.384 21.5178 127.742V134.956H17.6278V126.436C17.6278 124.874 17.5778 123.568 17.5258 122.444H20.9038L21.0818 124.182H21.1598C21.6718 123.366 22.9258 122.162 25.0238 122.162C27.5818 122.162 29.4998 123.876 29.4998 127.56V134.958Z" fill="white"/>
</g>
<defs>
<clipPath id="clip0_113_408">
<rect width="40" height="40" fill="white" transform="translate(0 107)"/>
</clipPath>
</defs>
</svg>
