<svg width="40" height="194" viewBox="0 0 40 194" fill="none" xmlns="http://www.w3.org/2000/svg">
<path fill-rule="evenodd" clip-rule="evenodd" d="M0 67.1117C0 77.055 7.22167 85.3233 16.6667 87V72.555H11.6667V67H16.6667V62.555C16.6667 57.555 19.8883 54.7783 24.445 54.7783C25.8883 54.7783 27.445 55 28.8883 55.2217V60.3333H26.3333C23.8883 60.3333 23.3333 61.555 23.3333 63.1117V67H28.6667L27.7783 72.555H23.3333V87C32.7783 85.3233 40 77.0567 40 67.1117C40 56.05 31 47 20 47C9 47 0 56.05 0 67.1117Z" fill="white"/>
<g clip-path="url(#clip0_830_4881)">
<path d="M20 107.801C9.39605 107.801 0.800049 116.397 0.800049 127.001C0.800049 137.605 9.39605 146.201 20 146.201C30.604 146.201 39.2001 137.605 39.2001 127.001C39.2001 116.397 30.604 107.801 20 107.801ZM15.3 134.959H11.412V122.447H15.3V134.959ZM13.332 120.911C12.104 120.911 11.31 120.041 11.31 118.965C11.31 117.867 12.128 117.023 13.382 117.023C14.636 117.023 15.404 117.867 15.428 118.965C15.428 120.041 14.636 120.911 13.332 120.911ZM29.5 134.959H25.612V128.025C25.612 126.411 25.048 125.315 23.642 125.315C22.568 125.315 21.9301 126.057 21.6481 126.771C21.5441 127.025 21.518 127.385 21.518 127.743V134.957H17.628V126.437C17.628 124.875 17.578 123.569 17.526 122.445H20.904L21.0821 124.183H21.16C21.672 123.367 22.926 122.163 25.024 122.163C27.582 122.163 29.5 123.877 29.5 127.561V134.959V134.959Z" fill="white"/>
</g>
<defs>
<clipPath id="clip0_830_4881">
<rect width="40" height="40" fill="white" transform="translate(0 107)"/>
</clipPath>
</defs>
</svg>
