<svg width="40" height="194" viewBox="0 0 40 194" fill="none" xmlns="http://www.w3.org/2000/svg">
<path fill-rule="evenodd" clip-rule="evenodd" d="M0 67.1117C0 77.055 7.22167 85.3233 16.6667 87V72.555H11.6667V67H16.6667V62.555C16.6667 57.555 19.8883 54.7783 24.445 54.7783C25.8883 54.7783 27.445 55 28.8883 55.2217V60.3333H26.3333C23.8883 60.3333 23.3333 61.555 23.3333 63.1117V67H28.6667L27.7783 72.555H23.3333V87C32.7783 85.3233 40 77.0567 40 67.1117C40 56.05 31 47 20 47C9 47 0 56.05 0 67.1117Z" fill="white"/>
<g clip-path="url(#clip0_830_4974)">
<path d="M19.9998 107.801C9.39581 107.801 0.799805 116.397 0.799805 127.001C0.799805 137.605 9.39581 146.201 19.9998 146.201C30.6038 146.201 39.1998 137.605 39.1998 127.001C39.1998 116.397 30.6038 107.801 19.9998 107.801ZM15.2998 134.959H11.4118V122.447H15.2998V134.959ZM13.3318 120.911C12.1038 120.911 11.3098 120.041 11.3098 118.965C11.3098 117.867 12.1278 117.023 13.3818 117.023C14.6358 117.023 15.4038 117.867 15.4278 118.965C15.4278 120.041 14.6358 120.911 13.3318 120.911ZM29.4998 134.959H25.6118V128.025C25.6118 126.411 25.0478 125.315 23.6418 125.315C22.5678 125.315 21.9298 126.057 21.6478 126.771C21.5438 127.025 21.5178 127.385 21.5178 127.743V134.957H17.6278V126.437C17.6278 124.875 17.5778 123.569 17.5258 122.445H20.9038L21.0818 124.183H21.1598C21.6718 123.367 22.9258 122.163 25.0238 122.163C27.5818 122.163 29.4998 123.877 29.4998 127.561V134.959V134.959Z" fill="white"/>
</g>
<defs>
<clipPath id="clip0_830_4974">
<rect width="40" height="40" fill="white" transform="translate(0 107)"/>
</clipPath>
</defs>
</svg>
