<svg width="80" height="138" viewBox="0 0 80 138" fill="none" xmlns="http://www.w3.org/2000/svg">
<path fill-rule="evenodd" clip-rule="evenodd" d="M0 69.081C0 76.2899 5.41625 82.2844 12.5 83.5V73.0274H8.75V69H12.5V65.7774C12.5 62.1524 14.9162 60.1393 18.3337 60.1393C19.4162 60.1393 20.5837 60.3 21.6662 60.4607V64.1667H19.75C17.9163 64.1667 17.5 65.0524 17.5 66.181V69H21.5L20.8337 73.0274H17.5V83.5C24.5837 82.2844 30 76.2911 30 69.081C30 61.0613 23.25 54.5 15 54.5C6.75 54.5 0 61.0613 0 69.081Z" fill="white"/>
<g clip-path="url(#clip0_830_5331)">
<path d="M64.9996 54.5996C57.0466 54.5996 50.5996 61.0466 50.5996 68.9996C50.5996 76.9526 57.0466 83.3996 64.9996 83.3996C72.9526 83.3996 79.3996 76.9526 79.3996 68.9996C79.3996 61.0466 72.9526 54.5996 64.9996 54.5996ZM61.4746 74.9681H58.5586V65.5841H61.4746V74.9681ZM59.9986 64.4321C59.0776 64.4321 58.4821 63.7796 58.4821 62.9726C58.4821 62.1491 59.0956 61.5161 60.0361 61.5161C60.9766 61.5161 61.5526 62.1491 61.5706 62.9726C61.5706 63.7796 60.9766 64.4321 59.9986 64.4321ZM72.1246 74.9681H69.2086V69.7676C69.2086 68.5571 68.7856 67.7351 67.7311 67.7351C66.9256 67.7351 66.4471 68.2916 66.2356 68.8271C66.1576 69.0176 66.1381 69.2876 66.1381 69.5561V74.9666H63.2206V68.5766C63.2206 67.4051 63.1831 66.4256 63.1441 65.5826H65.6776L65.8111 66.8861H65.8696C66.2536 66.2741 67.1941 65.3711 68.7676 65.3711C70.6861 65.3711 72.1246 66.6566 72.1246 69.4196V74.9681V74.9681Z" fill="white"/>
</g>
<defs>
<clipPath id="clip0_830_5331">
<rect width="30" height="30" fill="white" transform="translate(50 54)"/>
</clipPath>
</defs>
</svg>
