<svg width="25" height="25" viewBox="0 0 25 25" fill="none" xmlns="http://www.w3.org/2000/svg">
<g clip-path="url(#clip0_830_4813)">
<path fill-rule="evenodd" clip-rule="evenodd" d="M2.48303 4.5433C3.70003 3.3333 5.70403 3.5483 6.72303 4.9103L7.98503 6.5943C8.81503 7.7023 8.74103 9.2503 7.75603 10.2293L7.51803 10.4673C7.49115 10.5672 7.48841 10.6721 7.51003 10.7733C7.57303 11.1813 7.91403 12.0453 9.34203 13.4653C10.77 14.8853 11.64 15.2253 12.054 15.2893C12.1582 15.3115 12.2662 15.3084 12.369 15.2803L12.777 14.8743C13.653 14.0043 14.997 13.8413 16.081 14.4303L17.991 15.4703C19.628 16.3583 20.041 18.5823 18.701 19.9153L17.28 21.3273C16.832 21.7723 16.23 22.1433 15.496 22.2123C13.686 22.3813 9.46903 22.1653 5.03603 17.7583C0.899027 13.6443 0.105027 10.0563 0.00402701 8.2883C-0.045973 7.3943 0.376027 6.6383 0.914027 6.1043L2.48303 4.5433ZM5.52303 5.8093C5.01603 5.1323 4.07203 5.0783 3.54003 5.6073L1.97003 7.1673C1.64003 7.4953 1.48203 7.8573 1.50203 8.2033C1.58203 9.6083 2.22203 12.8453 6.09403 16.6953C10.156 20.7333 13.907 20.8543 15.357 20.7183C15.653 20.6913 15.947 20.5373 16.222 20.2643L17.642 18.8513C18.22 18.2773 18.093 17.2313 17.275 16.7873L15.365 15.7483C14.837 15.4623 14.219 15.5563 13.835 15.9383L13.38 16.3913L12.85 15.8593C13.38 16.3913 13.378 16.3923 13.378 16.3923L13.377 16.3943L13.374 16.3973L13.367 16.4033L13.352 16.4173C13.3095 16.4561 13.264 16.4915 13.216 16.5233C13.136 16.5763 13.03 16.6353 12.897 16.6843C12.627 16.7853 12.269 16.8393 11.827 16.7713C10.96 16.6383 9.81103 16.0473 8.28403 14.5293C6.75803 13.0113 6.16203 11.8693 6.02803 11.0033C5.95903 10.5613 6.01403 10.2033 6.11603 9.9333C6.17259 9.78156 6.25293 9.63979 6.35403 9.5133L6.38603 9.4783L6.40003 9.4633L6.40603 9.4573L6.40903 9.4543L6.41103 9.4523L6.69903 9.1663C7.12703 8.7393 7.18703 8.0323 6.78403 7.4933L5.52303 5.8093Z" fill="white"/>
</g>
<defs>
<clipPath id="clip0_830_4813">
<rect width="24" height="24" fill="white" transform="translate(0.5 0.5)"/>
</clipPath>
</defs>
</svg>
