<svg width="17" height="16" viewBox="0 0 17 16" fill="none" xmlns="http://www.w3.org/2000/svg">
<path d="M7.75088 10.36L6.26865 11.84C5.95618 12.152 5.45944 12.152 5.13896 11.848C5.05083 11.76 4.96269 11.68 4.87456 11.592C4.06436 10.7776 3.31711 9.90311 2.63921 8.976C1.98222 8.064 1.45343 7.152 1.06885 6.248C0.692288 5.336 0.5 4.464 0.5 3.632C0.5 3.088 0.596144 2.568 0.788433 2.088C0.980721 1.6 1.28518 1.152 1.70981 0.752C2.22258 0.248 2.78343 0 3.37631 0C3.60065 0 3.82499 0.0480001 4.02529 0.144C4.2336 0.24 4.41788 0.384 4.56209 0.592L6.42088 3.208C6.5651 3.408 6.66925 3.592 6.74136 3.768C6.81347 3.936 6.85353 4.104 6.85353 4.256C6.85353 4.448 6.79745 4.64 6.68528 4.824C6.58112 5.008 6.42889 5.2 6.2366 5.392L5.62769 6.024C5.53956 6.112 5.4995 6.216 5.4995 6.344C5.4995 6.408 5.50751 6.464 5.52354 6.528C5.54757 6.592 5.57161 6.64 5.58763 6.688C5.73185 6.952 5.98022 7.296 6.33275 7.712C6.69329 8.128 7.07787 8.552 7.49449 8.976C7.57461 9.056 7.66274 9.136 7.74286 9.216C8.06335 9.528 8.07136 10.04 7.75088 10.36ZM16.5 13.064C16.4989 13.3659 16.4305 13.6638 16.2997 13.936C16.1635 14.224 15.9872 14.496 15.7549 14.752C15.3623 15.184 14.9296 15.496 14.4409 15.696C14.4329 15.696 14.4249 15.704 14.4169 15.704C13.9442 15.896 13.4314 16 12.8786 16C12.0613 16 11.188 15.808 10.2666 15.416C9.34527 15.024 8.42389 14.496 7.51052 13.832C7.19805 13.6 6.88558 13.368 6.58913 13.12L9.20906 10.504C9.4334 10.672 9.6337 10.8 9.80195 10.888C9.84201 10.904 9.89009 10.928 9.94617 10.952C10.0103 10.976 10.0744 10.984 10.1465 10.984C10.2827 10.984 10.3868 10.936 10.475 10.848L11.0839 10.248C11.2842 10.048 11.4765 9.896 11.6607 9.8C11.845 9.688 12.0293 9.632 12.2296 9.632C12.3818 9.632 12.5421 9.664 12.7183 9.736C12.8946 9.808 13.0789 9.912 13.2792 10.048L15.9311 11.928C16.1395 12.072 16.2837 12.24 16.3718 12.44C16.4519 12.64 16.5 12.84 16.5 13.064Z" fill="white"/>
</svg>
