<svg width="40" height="40" viewBox="0 0 40 40" fill="none" xmlns="http://www.w3.org/2000/svg">
<g clip-path="url(#clip0_985_5243)">
<path d="M20.0008 0.800781C9.39678 0.800781 0.800781 9.39678 0.800781 20.0008C0.800781 30.6048 9.39678 39.2008 20.0008 39.2008C30.6048 39.2008 39.2008 30.6048 39.2008 20.0008C39.2008 9.39678 30.6048 0.800781 20.0008 0.800781ZM15.3008 27.9588H11.4128V15.4468H15.3008V27.9588ZM13.3328 13.9108C12.1048 13.9108 11.3108 13.0408 11.3108 11.9648C11.3108 10.8668 12.1288 10.0228 13.3828 10.0228C14.6368 10.0228 15.4048 10.8668 15.4288 11.9648C15.4288 13.0408 14.6368 13.9108 13.3328 13.9108ZM29.5008 27.9588H25.6128V21.0248C25.6128 19.4108 25.0488 18.3148 23.6428 18.3148C22.5688 18.3148 21.9308 19.0568 21.6488 19.7708C21.5448 20.0248 21.5188 20.3848 21.5188 20.7428V27.9568H17.6288V19.4368C17.6288 17.8748 17.5788 16.5688 17.5268 15.4448H20.9048L21.0828 17.1828H21.1608C21.6728 16.3668 22.9268 15.1628 25.0248 15.1628C27.5828 15.1628 29.5008 16.8768 29.5008 20.5608V27.9588V27.9588Z" fill="white"/>
</g>
<defs>
<clipPath id="clip0_985_5243">
<rect width="40" height="40" fill="white"/>
</clipPath>
</defs>
</svg>
