<svg width="78" height="62" viewBox="0 0 78 62" fill="none" xmlns="http://www.w3.org/2000/svg">
<rect x="0.5" width="77" height="62" rx="11" fill="#E12026"/>
<path d="M49 41L47 39M38.5 40C39.7476 40 40.9829 39.7543 42.1355 39.2769C43.2881 38.7994 44.3354 38.0997 45.2175 37.2175C46.0997 36.3354 46.7994 35.2881 47.2769 34.1355C47.7543 32.9829 48 31.7476 48 30.5C48 29.2524 47.7543 28.0171 47.2769 26.8645C46.7994 25.7119 46.0997 24.6646 45.2175 23.7825C44.3354 22.9003 43.2881 22.2006 42.1355 21.7231C40.9829 21.2457 39.7476 21 38.5 21C35.9804 21 33.5641 22.0009 31.7825 23.7825C30.0009 25.5641 29 27.9804 29 30.5C29 33.0196 30.0009 35.4359 31.7825 37.2175C33.5641 38.9991 35.9804 40 38.5 40Z" stroke="white" stroke-width="1.5" stroke-linecap="round" stroke-linejoin="round"/>
</svg>
