<svg width="80" height="138" viewBox="0 0 80 138" fill="none" xmlns="http://www.w3.org/2000/svg">
<path fill-rule="evenodd" clip-rule="evenodd" d="M0 69.081C0 76.2899 5.41625 82.2844 12.5 83.5V73.0274H8.75V69H12.5V65.7774C12.5 62.1524 14.9162 60.1393 18.3337 60.1393C19.4162 60.1393 20.5837 60.3 21.6662 60.4607V64.1667H19.75C17.9163 64.1667 17.5 65.0524 17.5 66.181V69H21.5L20.8337 73.0274H17.5V83.5C24.5837 82.2844 30 76.2911 30 69.081C30 61.0613 23.25 54.5 15 54.5C6.75 54.5 0 61.0613 0 69.081Z" fill="white"/>
<g clip-path="url(#clip0_830_5301)">
<path d="M65.0001 54.5996C57.0471 54.5996 50.6001 61.0466 50.6001 68.9996C50.6001 76.9526 57.0471 83.3996 65.0001 83.3996C72.9531 83.3996 79.4001 76.9526 79.4001 68.9996C79.4001 61.0466 72.9531 54.5996 65.0001 54.5996ZM61.4751 74.9681H58.5591V65.5841H61.4751V74.9681ZM59.9991 64.4321C59.0781 64.4321 58.4826 63.7796 58.4826 62.9726C58.4826 62.1491 59.0961 61.5161 60.0366 61.5161C60.9771 61.5161 61.5531 62.1491 61.5711 62.9726C61.5711 63.7796 60.9771 64.4321 59.9991 64.4321ZM72.1251 74.9681H69.2091V69.7676C69.2091 68.5571 68.7861 67.7351 67.7316 67.7351C66.9261 67.7351 66.4476 68.2916 66.2361 68.8271C66.1581 69.0176 66.1386 69.2876 66.1386 69.5561V74.9666H63.2211V68.5766C63.2211 67.4051 63.1836 66.4256 63.1446 65.5826H65.6781L65.8116 66.8861H65.8701C66.2541 66.2741 67.1946 65.3711 68.7681 65.3711C70.6866 65.3711 72.1251 66.6566 72.1251 69.4196V74.9681V74.9681Z" fill="white"/>
</g>
<defs>
<clipPath id="clip0_830_5301">
<rect width="30" height="30" fill="white" transform="translate(50 54)"/>
</clipPath>
</defs>
</svg>
