<svg width="50" height="62" viewBox="0 0 50 62" fill="none" xmlns="http://www.w3.org/2000/svg">
<rect width="50" height="62" rx="11" fill="#E12026"/>
<path d="M35 41L33 39M24.5 40C25.7476 40 26.9829 39.7543 28.1355 39.2769C29.2881 38.7994 30.3354 38.0997 31.2175 37.2175C32.0997 36.3354 32.7994 35.2881 33.2769 34.1355C33.7543 32.9829 34 31.7476 34 30.5C34 29.2524 33.7543 28.0171 33.2769 26.8645C32.7994 25.7119 32.0997 24.6646 31.2175 23.7825C30.3354 22.9003 29.2881 22.2006 28.1355 21.7231C26.9829 21.2457 25.7476 21 24.5 21C21.9804 21 19.5641 22.0009 17.7825 23.7825C16.0009 25.5641 15 27.9804 15 30.5C15 33.0196 16.0009 35.4359 17.7825 37.2175C19.5641 38.9991 21.9804 40 24.5 40Z" stroke="white" stroke-width="1.5" stroke-linecap="round" stroke-linejoin="round"/>
</svg>
