<svg width="110" height="95" viewBox="0 0 110 95" fill="none" xmlns="http://www.w3.org/2000/svg">
<path d="M55.3256 94.9594C39.4807 94.9594 23.6358 94.9594 7.79088 94.9594C7.01687 94.9594 6.23285 94.9594 5.45551 94.8797C1.48873 94.5108 -0.105995 91.8489 1.58548 88.2499C3.05342 85.1427 4.65481 82.1153 6.2095 79.0413C13.5492 64.5677 20.8889 50.0963 28.2287 35.6271C28.4555 35.1851 28.6924 34.7431 28.956 34.3211C30.8042 31.3701 33.8068 30.9547 36.1722 33.5003C37.8404 35.2815 39.2516 37.2821 40.7395 39.2128C48.3017 49.0562 55.8638 58.9039 63.4259 68.7561C66.7288 73.043 70.8891 73.2756 74.7691 69.4207C76.6942 67.5065 78.5758 65.5425 80.5242 63.645C84.0372 60.2221 88.024 60.4281 90.8932 64.4193C96.6515 72.4282 102.266 80.5434 107.908 88.6321C108.349 89.2667 108.687 89.9665 108.909 90.7058C109.456 92.5634 108.682 94.0589 106.79 94.554C105.604 94.8369 104.387 94.9675 103.167 94.9428C87.2289 94.9694 71.2817 94.975 55.3256 94.9594Z" fill="#D4D2E3"/>
<path d="M90.8598 15.6514C90.8557 18.7407 89.9309 21.7592 88.2025 24.3243C86.4741 26.8894 84.02 28.8855 81.1513 30.0596C78.2826 31.2337 75.1285 31.5329 72.0889 30.9193C69.0492 30.3057 66.261 28.8069 64.0776 26.6129C61.8942 24.4188 60.414 21.6285 59.8246 18.5955C59.2352 15.5625 59.5632 12.4235 60.767 9.57637C61.9708 6.72928 63.9962 4.30234 66.5864 2.60324C69.1766 0.904137 72.2149 0.00938402 75.3163 0.0324161C79.446 0.084691 83.3897 1.75132 86.2973 4.67303C89.2049 7.59474 90.8435 11.5375 90.8598 15.6514Z" fill="#D4D2E3"/>
</svg>
