<svg width="86" height="75" viewBox="0 0 86 75" fill="none" xmlns="http://www.w3.org/2000/svg">
<path d="M42.934 74.7817C30.4867 74.7817 18.0394 74.7817 5.59209 74.7817C4.98406 74.7817 4.36816 74.7817 3.7575 74.719C0.641311 74.4293 -0.611455 72.3382 0.717315 69.5109C1.87049 67.07 3.1285 64.6917 4.34981 62.2769C10.1157 50.9068 15.8815 39.5385 21.6474 28.172C21.8256 27.8248 22.0117 27.4775 22.2188 27.146C23.6707 24.8278 26.0295 24.5015 27.8877 26.5012C29.1981 27.9005 30.3067 29.472 31.4756 30.9888C37.4162 38.7214 43.3568 46.4575 49.2974 54.1971C51.892 57.5648 55.1602 57.7475 58.2083 54.7192C59.7205 53.2155 61.1987 51.6726 62.7292 50.182C65.489 47.493 68.6209 47.6549 70.8748 50.7902C75.3984 57.0818 79.8093 63.4569 84.2412 69.8111C84.5875 70.3096 84.8528 70.8594 85.0274 71.4401C85.4572 72.8995 84.8492 74.0742 83.3632 74.4632C82.4314 74.6854 81.4749 74.788 80.5169 74.7686C67.9963 74.7895 55.4686 74.7939 42.934 74.7817Z" fill="#D4D2E3"/>
<path d="M70.8486 12.4797C70.8454 14.9065 70.1189 17.2778 68.7611 19.2928C67.4033 21.3079 65.4754 22.876 63.2219 23.7983C60.9683 24.7207 58.4905 24.9557 56.1027 24.4737C53.7149 23.9916 51.5245 22.8142 49.8093 21.0906C48.0941 19.3671 46.9312 17.175 46.4682 14.7924C46.0052 12.4098 46.2629 9.94385 47.2086 7.70726C48.1542 5.47067 49.7453 3.56414 51.7801 2.22938C53.8149 0.894612 56.2017 0.19172 58.638 0.209813C61.8823 0.250879 64.9803 1.56014 67.2645 3.85535C69.5486 6.15055 70.8358 9.24789 70.8486 12.4797Z" fill="#D4D2E3"/>
</svg>
